<svg version="1.1" width="1em" height="1em" viewBox="0 0 18 22">
<g>
	<g>
		<path fill-rule="evenodd" clip-rule="evenodd" fill="currentColor" d="M16,22h2v-2h-2V22z M16,2.001h-2V1c0-0.551-0.448-1-1-1
			c-0.553,0-1,0.449-1,1v1.001H6V1c0-0.551-0.448-1-1-1C4.447,0,4,0.449,4,1v1.001H2c-1.104,0-2,0.895-2,2V20c0,1.105,0.896,2,2,2
			h12v-2H2V4.001h2V5c0,0.552,0.447,1,1,1c0.552,0,1-0.448,1-1V4.001h6V5c0,0.552,0.447,1,1,1c0.552,0,1-0.448,1-1V4.001h2V18h2
			V4.001C18,2.896,17.104,2.001,16,2.001z M5,18h2v-2H5V18z M10,18v-2H8v2H10z M11,18h2v-2h-2V18z M10,13H5v2h5V13z M13,13h-2v2h2
			V13z M10,10.001H5V12h5V10.001z M13,10.001h-2V12h2V10.001z"/>
	</g>
</g>
</svg>
